<?xml version="1.0" encoding="UTF-8" standalone="no"?>
<!-- Created with Inkscape (http://www.inkscape.org/) -->

<svg
   xmlns:dc="http://purl.org/dc/elements/1.1/"
   xmlns:cc="http://creativecommons.org/ns#"
   xmlns:rdf="http://www.w3.org/1999/02/22-rdf-syntax-ns#"
   xmlns:svg="http://www.w3.org/2000/svg"
   xmlns="http://www.w3.org/2000/svg"
   xmlns:sodipodi="http://sodipodi.sourceforge.net/DTD/sodipodi-0.dtd"
   xmlns:inkscape="http://www.inkscape.org/namespaces/inkscape"
   width="40.833038mm"
   height="180.39368mm"
   viewBox="0 0 40.833038 180.39368"
   version="1.1"
   id="svg343033"
   inkscape:version="0.92.3 (2405546, 2018-03-11)"
   sodipodi:docname="bubbles_score.svg">
  <defs
     id="defs343027" />
  <sodipodi:namedview
     id="base"
     pagecolor="#ffffff"
     bordercolor="#666666"
     borderopacity="1.0"
     inkscape:pageopacity="0.0"
     inkscape:pageshadow="2"
     inkscape:zoom="5.12"
     inkscape:cx="178.99167"
     inkscape:cy="23.634579"
     inkscape:document-units="mm"
     inkscape:current-layer="layer1"
     showgrid="true"
     fit-margin-top="-0.1"
     fit-margin-left="0"
     fit-margin-right="0"
     fit-margin-bottom="0"
     inkscape:window-width="1392"
     inkscape:window-height="934"
     inkscape:window-x="1472"
     inkscape:window-y="1098"
     inkscape:window-maximized="0">
    <inkscape:grid
       type="xygrid"
       id="grid1707" />
  </sodipodi:namedview>
  <metadata
     id="metadata343030">
    <rdf:RDF>
      <cc:Work
         rdf:about="">
        <dc:format>image/svg+xml</dc:format>
        <dc:type
           rdf:resource="http://purl.org/dc/dcmitype/StillImage" />
        <dc:title />
      </cc:Work>
    </rdf:RDF>
  </metadata>
  <g
     inkscape:label="Layer 1"
     inkscape:groupmode="layer"
     id="layer1"
     transform="translate(-16.625151,-103.28768)">
    <rect
       style="opacity:1;fill:none;fill-opacity:1;stroke:#000000;stroke-width:0.35277778;stroke-miterlimit:4;stroke-dasharray:none;stroke-dashoffset:0;stroke-opacity:1"
       id="rect1680-1-8"
       width="37.517986"
       height="37.835251"
       x="16.80154"
       y="103.36407"
       ry="0"
       rx="0" />
    <g
       id="g341200"
       style="stroke:#000000;stroke-opacity:0.39215686"
       transform="translate(198.91305,-148.74938)">
      <circle
         r="3.8236113"
         style="opacity:0.93999999;fill:none;fill-opacity:1;stroke:#000000;stroke-width:0.35277778;stroke-linejoin:miter;stroke-miterlimit:4;stroke-dasharray:none;stroke-dashoffset:0;stroke-opacity:0.39215686"
         id="circle1876-6-8"
         cx="-176.45486"
         cy="307.27246" />
      <circle
         cy="377.27258"
         cx="-176.45486"
         id="circle1878-0-5"
         style="opacity:0.93999999;fill:none;fill-opacity:1;stroke:#000000;stroke-width:0.35277778;stroke-linejoin:miter;stroke-miterlimit:4;stroke-dasharray:none;stroke-dashoffset:0;stroke-opacity:0.39215686"
         r="3.8236113" />
      <circle
         r="3.8236113"
         style="opacity:0.93999999;fill:none;fill-opacity:1;stroke:#000000;stroke-width:0.35277778;stroke-linejoin:miter;stroke-miterlimit:4;stroke-dasharray:none;stroke-dashoffset:0;stroke-opacity:0.39215686"
         id="circle1884-2-4"
         cx="-176.45486"
         cy="317.27249" />
      <circle
         r="3.8236113"
         style="opacity:0.93999999;fill:none;fill-opacity:1;stroke:#000000;stroke-width:0.35277778;stroke-linejoin:miter;stroke-miterlimit:4;stroke-dasharray:none;stroke-dashoffset:0;stroke-opacity:0.39215686"
         id="circle1898-1-2"
         cx="-176.45486"
         cy="347.27258" />
      <circle
         r="3.8236113"
         style="opacity:0.93999999;fill:none;fill-opacity:1;stroke:#000000;stroke-width:0.35277778;stroke-linejoin:miter;stroke-miterlimit:4;stroke-dasharray:none;stroke-dashoffset:0;stroke-opacity:0.39215686"
         id="circle1904-6-7"
         cx="-166.45486"
         cy="327.27252" />
      <circle
         cy="367.27258"
         cx="-176.45486"
         id="circle1910-4-9"
         style="opacity:0.93999999;fill:none;fill-opacity:1;stroke:#000000;stroke-width:0.35277778;stroke-linejoin:miter;stroke-miterlimit:4;stroke-dasharray:none;stroke-dashoffset:0;stroke-opacity:0.39215686"
         r="3.8236113" />
      <circle
         r="3.8236113"
         style="opacity:0.93999999;fill:none;fill-opacity:1;stroke:#000000;stroke-width:0.35277778;stroke-linejoin:miter;stroke-miterlimit:4;stroke-dasharray:none;stroke-dashoffset:0;stroke-opacity:0.39215686"
         id="circle1912-9-6"
         cx="-166.45486"
         cy="357.27258" />
      <circle
         r="3.8236113"
         style="opacity:0.93999999;fill:none;fill-opacity:1;stroke:#000000;stroke-width:0.35277778;stroke-linejoin:miter;stroke-miterlimit:4;stroke-dasharray:none;stroke-dashoffset:0;stroke-opacity:0.39215686"
         id="circle1916-4-4"
         cx="-166.45486"
         cy="307.27246" />
      <circle
         cy="317.27249"
         cx="-166.45486"
         id="circle1932-0-1"
         style="opacity:0.93999999;fill:none;fill-opacity:1;stroke:#000000;stroke-width:0.35277778;stroke-linejoin:miter;stroke-miterlimit:4;stroke-dasharray:none;stroke-dashoffset:0;stroke-opacity:0.39215686"
         r="3.8236113" />
      <circle
         cy="387.27258"
         cx="-166.45486"
         id="circle1934-6-3"
         style="opacity:0.93999999;fill:none;fill-opacity:1;stroke:#000000;stroke-width:0.35277778;stroke-linejoin:miter;stroke-miterlimit:4;stroke-dasharray:none;stroke-dashoffset:0;stroke-opacity:0.39215686"
         r="3.8236113" />
      <circle
         r="3.8236113"
         style="opacity:0.93999999;fill:none;fill-opacity:1;stroke:#000000;stroke-width:0.35277778;stroke-linejoin:miter;stroke-miterlimit:4;stroke-dasharray:none;stroke-dashoffset:0;stroke-opacity:0.39215686"
         id="circle1950-66-8"
         cx="-176.45486"
         cy="387.27258" />
      <circle
         cy="337.27255"
         cx="-176.45486"
         id="circle1952-3-9"
         style="opacity:0.93999999;fill:none;fill-opacity:1;stroke:#000000;stroke-width:0.35277778;stroke-linejoin:miter;stroke-miterlimit:4;stroke-dasharray:none;stroke-dashoffset:0;stroke-opacity:0.39215686"
         r="3.8236113" />
      <circle
         cy="367.27258"
         cx="-166.45486"
         id="circle1966-0-8"
         style="opacity:0.93999999;fill:none;fill-opacity:1;stroke:#000000;stroke-width:0.35277778;stroke-linejoin:miter;stroke-miterlimit:4;stroke-dasharray:none;stroke-dashoffset:0;stroke-opacity:0.39215686"
         r="3.8236113" />
      <circle
         cy="337.27255"
         cx="-166.45486"
         id="circle2004-5-0"
         style="opacity:0.93999999;fill:none;fill-opacity:1;stroke:#000000;stroke-width:0.35277778;stroke-linejoin:miter;stroke-miterlimit:4;stroke-dasharray:none;stroke-dashoffset:0;stroke-opacity:0.39215686"
         r="3.8236113" />
      <circle
         r="3.8236113"
         style="opacity:0.93999999;fill:none;fill-opacity:1;stroke:#000000;stroke-width:0.35277778;stroke-linejoin:miter;stroke-miterlimit:4;stroke-dasharray:none;stroke-dashoffset:0;stroke-opacity:0.39215686"
         id="circle2020-6-9"
         cx="-176.45486"
         cy="357.27258" />
      <circle
         r="3.8236113"
         style="opacity:0.93999999;fill:none;fill-opacity:1;stroke:#000000;stroke-width:0.35277778;stroke-linejoin:miter;stroke-miterlimit:4;stroke-dasharray:none;stroke-dashoffset:0;stroke-opacity:0.39215686"
         id="circle2028-3-4"
         cx="-166.45486"
         cy="297.27243" />
      <circle
         r="3.8236113"
         style="opacity:0.93999999;fill:none;fill-opacity:1;stroke:#000000;stroke-width:0.35277778;stroke-linejoin:miter;stroke-miterlimit:4;stroke-dasharray:none;stroke-dashoffset:0;stroke-opacity:0.39215686"
         id="circle2052-61-3"
         cx="-156.45486"
         cy="297.27243" />
      <circle
         cy="347.27258"
         cx="-166.45486"
         id="circle2068-70-2"
         style="opacity:0.93999999;fill:none;fill-opacity:1;stroke:#000000;stroke-width:0.35277778;stroke-linejoin:miter;stroke-miterlimit:4;stroke-dasharray:none;stroke-dashoffset:0;stroke-opacity:0.39215686"
         r="3.8236113" />
      <circle
         r="3.8236113"
         style="opacity:0.93999999;fill:none;fill-opacity:1;stroke:#000000;stroke-width:0.35277778;stroke-linejoin:miter;stroke-miterlimit:4;stroke-dasharray:none;stroke-dashoffset:0;stroke-opacity:0.39215686"
         id="circle2084-1-5"
         cx="-166.45486"
         cy="377.27258" />
      <circle
         cy="327.27252"
         cx="-176.45486"
         id="circle2108-0-1"
         style="opacity:0.93999999;fill:none;fill-opacity:1;stroke:#000000;stroke-width:0.35277778;stroke-linejoin:miter;stroke-miterlimit:4;stroke-dasharray:none;stroke-dashoffset:0;stroke-opacity:0.39215686"
         r="3.8236113" />
    </g>
    <text
       xml:space="preserve"
       style="font-style:normal;font-variant:normal;font-weight:normal;font-stretch:normal;font-size:4.79616356px;line-height:125%;font-family:'Courier 10 Pitch';-inkscape-font-specification:'Courier 10 Pitch';letter-spacing:0px;word-spacing:0px;fill:#000000;fill-opacity:0.39215686;stroke:none;stroke-width:0.35277778;stroke-linecap:butt;stroke-linejoin:miter;stroke-miterlimit:4;stroke-dasharray:none;stroke-dashoffset:0;stroke-opacity:1"
       x="19.369518"
       y="160.45166"
       id="text2132-9-4-8"><tspan
         sodipodi:role="line"
         id="tspan2130-4-9-1"
         x="19.369518"
         y="160.45166"
         style="fill:#000000;fill-opacity:0.39215686;stroke-width:0.35277778;stroke-linejoin:miter;stroke-miterlimit:4;stroke-dasharray:none;stroke-dashoffset:0">10</tspan></text>
    <text
       xml:space="preserve"
       style="font-style:normal;font-variant:normal;font-weight:normal;font-stretch:normal;font-size:4.79616356px;line-height:125%;font-family:'Courier 10 Pitch';-inkscape-font-specification:'Courier 10 Pitch';letter-spacing:0px;word-spacing:0px;fill:#000000;fill-opacity:0.39215686;stroke:none;stroke-width:0.35277778;stroke-linecap:butt;stroke-linejoin:miter;stroke-miterlimit:4;stroke-dasharray:none;stroke-dashoffset:0;stroke-opacity:1"
       x="19.463039"
       y="180.2363"
       id="text2140-4-4-9"><tspan
         sodipodi:role="line"
         id="tspan2138-1-9-7"
         x="19.463039"
         y="180.2363"
         style="fill:#000000;fill-opacity:0.39215686;stroke-width:0.35277778;stroke-linejoin:miter;stroke-miterlimit:4;stroke-dasharray:none;stroke-dashoffset:0">30</tspan></text>
    <text
       xml:space="preserve"
       style="font-style:normal;font-variant:normal;font-weight:normal;font-stretch:normal;font-size:4.79616356px;line-height:125%;font-family:'Courier 10 Pitch';-inkscape-font-specification:'Courier 10 Pitch';letter-spacing:0px;word-spacing:0px;fill:#000000;fill-opacity:0.39215686;stroke:none;stroke-width:0.35277778;stroke-linecap:butt;stroke-linejoin:miter;stroke-miterlimit:4;stroke-dasharray:none;stroke-dashoffset:0;stroke-opacity:1"
       x="31.050518"
       y="200.01376"
       id="text2148-4-6-4"><tspan
         sodipodi:role="line"
         id="tspan2146-9-3-9"
         x="31.050518"
         y="200.01376"
         style="fill:#000000;fill-opacity:0.39215686;stroke-width:0.35277778;stroke-linejoin:miter;stroke-miterlimit:4;stroke-dasharray:none;stroke-dashoffset:0">5</tspan></text>
    <text
       id="text2244-2-7"
       y="150.51257"
       x="31.014553"
       style="font-style:normal;font-variant:normal;font-weight:normal;font-stretch:normal;font-size:4.79616356px;line-height:125%;font-family:'Courier 10 Pitch';-inkscape-font-specification:'Courier 10 Pitch';letter-spacing:0px;word-spacing:0px;fill:#000000;fill-opacity:0.39215686;stroke:none;stroke-width:0.35277778;stroke-linecap:butt;stroke-linejoin:miter;stroke-miterlimit:4;stroke-dasharray:none;stroke-dashoffset:0;stroke-opacity:1"
       xml:space="preserve"><tspan
         style="fill:#000000;fill-opacity:0.39215686;stroke-width:0.35277778;stroke-linejoin:miter;stroke-miterlimit:4;stroke-dasharray:none;stroke-dashoffset:0"
         y="150.51257"
         x="31.014553"
         id="tspan2242-2-6"
         sodipodi:role="line">0</tspan></text>
    <text
       id="text2252-12-1"
       y="170.36676"
       x="31.098476"
       style="font-style:normal;font-variant:normal;font-weight:normal;font-stretch:normal;font-size:4.79616356px;line-height:125%;font-family:'Courier 10 Pitch';-inkscape-font-specification:'Courier 10 Pitch';letter-spacing:0px;word-spacing:0px;fill:#000000;fill-opacity:0.39215686;stroke:none;stroke-width:0.35277778;stroke-linecap:butt;stroke-linejoin:miter;stroke-miterlimit:4;stroke-dasharray:none;stroke-dashoffset:0;stroke-opacity:1"
       xml:space="preserve"><tspan
         style="fill:#000000;fill-opacity:0.39215686;stroke-width:0.35277778;stroke-linejoin:miter;stroke-miterlimit:4;stroke-dasharray:none;stroke-dashoffset:0"
         y="170.36676"
         x="31.098476"
         id="tspan2250-4-0"
         sodipodi:role="line">2</tspan></text>
    <text
       id="text2260-6-1"
       y="190.1778"
       x="19.479824"
       style="font-style:normal;font-variant:normal;font-weight:normal;font-stretch:normal;font-size:4.79616356px;line-height:125%;font-family:'Courier 10 Pitch';-inkscape-font-specification:'Courier 10 Pitch';letter-spacing:0px;word-spacing:0px;fill:#000000;fill-opacity:0.39215686;stroke:none;stroke-width:0.35277778;stroke-linecap:butt;stroke-linejoin:miter;stroke-miterlimit:4;stroke-dasharray:none;stroke-dashoffset:0;stroke-opacity:1"
       xml:space="preserve"><tspan
         style="fill:#000000;fill-opacity:0.39215686;stroke-width:0.35277778;stroke-linejoin:miter;stroke-miterlimit:4;stroke-dasharray:none;stroke-dashoffset:0"
         y="190.1778"
         x="19.479824"
         id="tspan2258-3-8"
         sodipodi:role="line">40</tspan></text>
    <text
       id="text2272-2-7"
       y="219.84637"
       x="19.44865"
       style="font-style:normal;font-variant:normal;font-weight:normal;font-stretch:normal;font-size:4.79616356px;line-height:125%;font-family:'Courier 10 Pitch';-inkscape-font-specification:'Courier 10 Pitch';letter-spacing:0px;word-spacing:0px;fill:#000000;fill-opacity:0.39215686;stroke:none;stroke-width:0.35277778;stroke-linecap:butt;stroke-linejoin:miter;stroke-miterlimit:4;stroke-dasharray:none;stroke-dashoffset:0;stroke-opacity:1"
       xml:space="preserve"><tspan
         style="fill:#000000;fill-opacity:0.39215686;stroke-width:0.35277778;stroke-linejoin:miter;stroke-miterlimit:4;stroke-dasharray:none;stroke-dashoffset:0"
         y="219.84637"
         x="19.44865"
         id="tspan2270-5-7"
         sodipodi:role="line">70</tspan></text>
    <text
       id="text2280-68-4"
       y="239.68378"
       x="19.441463"
       style="font-style:normal;font-variant:normal;font-weight:normal;font-stretch:normal;font-size:4.79616356px;line-height:125%;font-family:'Courier 10 Pitch';-inkscape-font-specification:'Courier 10 Pitch';letter-spacing:0px;word-spacing:0px;fill:#000000;fill-opacity:0.39215686;stroke:none;stroke-width:0.35277778;stroke-linecap:butt;stroke-linejoin:miter;stroke-miterlimit:4;stroke-dasharray:none;stroke-dashoffset:0;stroke-opacity:1"
       xml:space="preserve"><tspan
         style="fill:#000000;fill-opacity:0.39215686;stroke-width:0.35277778;stroke-linejoin:miter;stroke-miterlimit:4;stroke-dasharray:none;stroke-dashoffset:0"
         y="239.68378"
         x="19.441463"
         id="tspan2278-1-5"
         sodipodi:role="line">90</tspan></text>
    <text
       xml:space="preserve"
       style="font-style:normal;font-variant:normal;font-weight:normal;font-stretch:normal;font-size:4.79616356px;line-height:125%;font-family:'Courier 10 Pitch';-inkscape-font-specification:'Courier 10 Pitch';letter-spacing:0px;word-spacing:0px;fill:#000000;fill-opacity:0.39215686;stroke:none;stroke-width:0.35277778;stroke-linecap:butt;stroke-linejoin:miter;stroke-miterlimit:4;stroke-dasharray:none;stroke-dashoffset:0;stroke-opacity:1"
       x="31.028942"
       y="239.68378"
       id="text2320-0-9"><tspan
         sodipodi:role="line"
         id="tspan2318-63-6"
         x="31.028942"
         y="239.68378"
         style="fill:#000000;fill-opacity:0.39215686;stroke-width:0.35277778;stroke-linejoin:miter;stroke-miterlimit:4;stroke-dasharray:none;stroke-dashoffset:0">9</tspan></text>
    <text
       xml:space="preserve"
       style="font-style:normal;font-variant:normal;font-weight:normal;font-stretch:normal;font-size:4.79616356px;line-height:125%;font-family:'Courier 10 Pitch';-inkscape-font-specification:'Courier 10 Pitch';letter-spacing:0px;word-spacing:0px;fill:#000000;fill-opacity:0.39215686;stroke:none;stroke-width:0.35277778;stroke-linecap:butt;stroke-linejoin:miter;stroke-miterlimit:4;stroke-dasharray:none;stroke-dashoffset:0;stroke-opacity:1"
       x="19.463039"
       y="200.01376"
       id="text2384-0-2"><tspan
         sodipodi:role="line"
         id="tspan2382-3-2"
         x="19.463039"
         y="200.01376"
         style="fill:#000000;fill-opacity:0.39215686;stroke-width:0.35277778;stroke-linejoin:miter;stroke-miterlimit:4;stroke-dasharray:none;stroke-dashoffset:0">50</tspan></text>
    <text
       xml:space="preserve"
       style="font-style:normal;font-variant:normal;font-weight:normal;font-stretch:normal;font-size:4.79616356px;line-height:125%;font-family:'Courier 10 Pitch';-inkscape-font-specification:'Courier 10 Pitch';letter-spacing:0px;word-spacing:0px;fill:#000000;fill-opacity:0.39215686;stroke:none;stroke-width:0.35277778;stroke-linecap:butt;stroke-linejoin:miter;stroke-miterlimit:4;stroke-dasharray:none;stroke-dashoffset:0;stroke-opacity:1"
       x="31.019344"
       y="209.96005"
       id="text2388-0-1"><tspan
         sodipodi:role="line"
         id="tspan2386-3-5"
         x="31.019344"
         y="209.96005"
         style="fill:#000000;fill-opacity:0.39215686;stroke-width:0.35277778;stroke-linejoin:miter;stroke-miterlimit:4;stroke-dasharray:none;stroke-dashoffset:0">6</tspan></text>
    <text
       id="text2420-5-4"
       y="190.1778"
       x="31.067303"
       style="font-style:normal;font-variant:normal;font-weight:normal;font-stretch:normal;font-size:4.79616356px;line-height:125%;font-family:'Courier 10 Pitch';-inkscape-font-specification:'Courier 10 Pitch';letter-spacing:0px;word-spacing:0px;fill:#000000;fill-opacity:0.39215686;stroke:none;stroke-width:0.35277778;stroke-linecap:butt;stroke-linejoin:miter;stroke-miterlimit:4;stroke-dasharray:none;stroke-dashoffset:0;stroke-opacity:1"
       xml:space="preserve"><tspan
         style="fill:#000000;fill-opacity:0.39215686;stroke-width:0.35277778;stroke-linejoin:miter;stroke-miterlimit:4;stroke-dasharray:none;stroke-dashoffset:0"
         y="190.1778"
         x="31.067303"
         id="tspan2418-6-3"
         sodipodi:role="line">4</tspan></text>
    <text
       id="text2432-72-6"
       y="219.84637"
       x="31.036129"
       style="font-style:normal;font-variant:normal;font-weight:normal;font-stretch:normal;font-size:4.79616356px;line-height:125%;font-family:'Courier 10 Pitch';-inkscape-font-specification:'Courier 10 Pitch';letter-spacing:0px;word-spacing:0px;fill:#000000;fill-opacity:0.39215686;stroke:none;stroke-width:0.35277778;stroke-linecap:butt;stroke-linejoin:miter;stroke-miterlimit:4;stroke-dasharray:none;stroke-dashoffset:0;stroke-opacity:1"
       xml:space="preserve"><tspan
         style="fill:#000000;fill-opacity:0.39215686;stroke-width:0.35277778;stroke-linejoin:miter;stroke-miterlimit:4;stroke-dasharray:none;stroke-dashoffset:0"
         y="219.84637"
         x="31.036129"
         id="tspan2430-7-4"
         sodipodi:role="line">7</tspan></text>
    <text
       id="text2436-3-2"
       y="229.77588"
       x="19.427074"
       style="font-style:normal;font-variant:normal;font-weight:normal;font-stretch:normal;font-size:4.79616356px;line-height:125%;font-family:'Courier 10 Pitch';-inkscape-font-specification:'Courier 10 Pitch';letter-spacing:0px;word-spacing:0px;fill:#000000;fill-opacity:0.39215686;stroke:none;stroke-width:0.35277778;stroke-linecap:butt;stroke-linejoin:miter;stroke-miterlimit:4;stroke-dasharray:none;stroke-dashoffset:0;stroke-opacity:1"
       xml:space="preserve"><tspan
         style="fill:#000000;fill-opacity:0.39215686;stroke-width:0.35277778;stroke-linejoin:miter;stroke-miterlimit:4;stroke-dasharray:none;stroke-dashoffset:0"
         y="229.77588"
         x="19.427074"
         id="tspan2434-3-0"
         sodipodi:role="line">80</tspan></text>
    <text
       xml:space="preserve"
       style="font-style:normal;font-variant:normal;font-weight:normal;font-stretch:normal;font-size:4.79616356px;line-height:125%;font-family:'Courier 10 Pitch';-inkscape-font-specification:'Courier 10 Pitch';letter-spacing:0px;word-spacing:0px;fill:#000000;fill-opacity:0.39215686;stroke:none;stroke-width:0.35277778;stroke-linecap:butt;stroke-linejoin:miter;stroke-miterlimit:4;stroke-dasharray:none;stroke-dashoffset:0;stroke-opacity:1"
       x="30.956997"
       y="160.45166"
       id="text2448-4-4"><tspan
         sodipodi:role="line"
         id="tspan2446-9-6"
         x="30.956997"
         y="160.45166"
         style="fill:#000000;fill-opacity:0.39215686;stroke-width:0.35277778;stroke-linejoin:miter;stroke-miterlimit:4;stroke-dasharray:none;stroke-dashoffset:0">1</tspan></text>
    <text
       xml:space="preserve"
       style="font-style:normal;font-variant:normal;font-weight:normal;font-stretch:normal;font-size:4.79616356px;line-height:125%;font-family:'Courier 10 Pitch';-inkscape-font-specification:'Courier 10 Pitch';letter-spacing:0px;word-spacing:0px;fill:#000000;fill-opacity:0.39215686;stroke:none;stroke-width:0.35277778;stroke-linecap:butt;stroke-linejoin:miter;stroke-miterlimit:4;stroke-dasharray:none;stroke-dashoffset:0;stroke-opacity:1"
       x="31.050518"
       y="180.2363"
       id="text2456-83-1"><tspan
         sodipodi:role="line"
         id="tspan2454-2-2"
         x="31.050518"
         y="180.2363"
         style="fill:#000000;fill-opacity:0.39215686;stroke-width:0.35277778;stroke-linejoin:miter;stroke-miterlimit:4;stroke-dasharray:none;stroke-dashoffset:0">3</tspan></text>
    <text
       xml:space="preserve"
       style="font-style:normal;font-variant:normal;font-weight:normal;font-stretch:normal;font-size:4.79616356px;line-height:125%;font-family:'Courier 10 Pitch';-inkscape-font-specification:'Courier 10 Pitch';letter-spacing:0px;word-spacing:0px;fill:#000000;fill-opacity:0.39215686;stroke:none;stroke-width:0.35277778;stroke-linecap:butt;stroke-linejoin:miter;stroke-miterlimit:4;stroke-dasharray:none;stroke-dashoffset:0;stroke-opacity:1"
       x="19.431866"
       y="209.96005"
       id="text2468-9-3"><tspan
         sodipodi:role="line"
         id="tspan2466-49-8"
         x="19.431866"
         y="209.96005"
         style="fill:#000000;fill-opacity:0.39215686;stroke-width:0.35277778;stroke-linejoin:miter;stroke-miterlimit:4;stroke-dasharray:none;stroke-dashoffset:0">60</tspan></text>
    <text
       xml:space="preserve"
       style="font-style:normal;font-variant:normal;font-weight:normal;font-stretch:normal;font-size:4.79616356px;line-height:125%;font-family:'Courier 10 Pitch';-inkscape-font-specification:'Courier 10 Pitch';letter-spacing:0px;word-spacing:0px;fill:#000000;fill-opacity:0.39215686;stroke:none;stroke-width:0.35277778;stroke-linecap:butt;stroke-linejoin:miter;stroke-miterlimit:4;stroke-dasharray:none;stroke-dashoffset:0;stroke-opacity:1"
       x="31.014553"
       y="229.77588"
       id="text2476-3-4"><tspan
         sodipodi:role="line"
         id="tspan2474-9-5"
         x="31.014553"
         y="229.77588"
         style="fill:#000000;fill-opacity:0.39215686;stroke-width:0.35277778;stroke-linejoin:miter;stroke-miterlimit:4;stroke-dasharray:none;stroke-dashoffset:0">8</tspan></text>
    <text
       id="text2492-0-0"
       y="170.36676"
       x="19.510998"
       style="font-style:normal;font-variant:normal;font-weight:normal;font-stretch:normal;font-size:4.79616356px;line-height:125%;font-family:'Courier 10 Pitch';-inkscape-font-specification:'Courier 10 Pitch';letter-spacing:0px;word-spacing:0px;fill:#000000;fill-opacity:0.39215686;stroke:none;stroke-width:0.35277778;stroke-linecap:butt;stroke-linejoin:miter;stroke-miterlimit:4;stroke-dasharray:none;stroke-dashoffset:0;stroke-opacity:1"
       xml:space="preserve"><tspan
         style="fill:#000000;fill-opacity:0.39215686;stroke-width:0.35277778;stroke-linejoin:miter;stroke-miterlimit:4;stroke-dasharray:none;stroke-dashoffset:0"
         y="170.36676"
         x="19.510998"
         id="tspan2490-5-0"
         sodipodi:role="line">20</tspan></text>
    <text
       id="text2244-2-7-5"
       y="150.11667"
       x="39.636013"
       style="font-style:normal;font-variant:normal;font-weight:normal;font-stretch:normal;font-size:4.79616356px;line-height:125%;font-family:'Courier 10 Pitch';-inkscape-font-specification:'Courier 10 Pitch';letter-spacing:0px;word-spacing:0px;fill:#000000;fill-opacity:0.39215686;stroke:none;stroke-width:0.35277778;stroke-linecap:butt;stroke-linejoin:miter;stroke-miterlimit:4;stroke-dasharray:none;stroke-dashoffset:0;stroke-opacity:1"
       xml:space="preserve"><tspan
         style="fill:#000000;fill-opacity:0.39215686;stroke-width:0.35277778;stroke-linejoin:miter;stroke-miterlimit:4;stroke-dasharray:none;stroke-dashoffset:0"
         y="150.11667"
         x="39.636013"
         id="tspan2242-2-6-8"
         sodipodi:role="line">.5</tspan></text>
    <g
       id="g900"
       transform="matrix(0.17583406,0,0,0.17583406,17.0179,243.06369)">
      <rect
         id="rect883-3"
         height="231"
         width="231"
         y="0"
         x="0"
         style="fill:#ffffff;fill-opacity:1" />
      <g
         id="elements">
        <path
           id="path885-6"
           d="M 0,0 H 7 V 7 H 0 Z m 7,0 h 7 V 7 H 7 Z m 7,0 h 7 v 7 h -7 z m 7,0 h 7 v 7 h -7 z m 7,0 h 7 v 7 h -7 z m 7,0 h 7 v 7 h -7 z m 7,0 h 7 v 7 h -7 z m 42,0 h 7 v 7 h -7 z m 14,0 h 7 v 7 h -7 z m 28,0 h 7 v 7 h -7 z m 7,0 h 7 v 7 h -7 z m 14,0 h 7 v 7 h -7 z m 14,0 h 7 v 7 h -7 z m 7,0 h 7 v 7 h -7 z m 14,0 h 7 v 7 h -7 z m 7,0 h 7 v 7 h -7 z m 7,0 h 7 v 7 h -7 z m 7,0 h 7 v 7 h -7 z m 7,0 h 7 v 7 h -7 z m 7,0 h 7 v 7 h -7 z m 7,0 h 7 v 7 h -7 z M 0,7 h 7 v 7 H 0 Z m 42,0 h 7 v 7 h -7 z m 14,0 h 7 v 7 h -7 z m 14,0 h 7 v 7 h -7 z m 21,0 h 7 v 7 h -7 z m 14,0 h 7 v 7 h -7 z m 14,0 h 7 v 7 h -7 z m 7,0 h 7 v 7 h -7 z m 14,0 h 7 v 7 h -7 z m 7,0 h 7 v 7 h -7 z m 21,0 h 7 v 7 h -7 z m 14,0 h 7 v 7 h -7 z m 42,0 h 7 v 7 h -7 z M 0,14 h 7 v 7 H 0 Z m 14,0 h 7 v 7 h -7 z m 7,0 h 7 v 7 h -7 z m 7,0 h 7 v 7 h -7 z m 14,0 h 7 v 7 h -7 z m 56,0 h 7 v 7 h -7 z m 7,0 h 7 v 7 h -7 z m 21,0 h 7 v 7 h -7 z m 14,0 h 7 v 7 h -7 z m 7,0 h 7 v 7 h -7 z m 14,0 h 7 v 7 h -7 z m 7,0 h 7 v 7 h -7 z m 14,0 h 7 v 7 h -7 z m 14,0 h 7 v 7 h -7 z m 7,0 h 7 v 7 h -7 z m 7,0 h 7 v 7 h -7 z m 14,0 h 7 v 7 h -7 z M 0,21 h 7 v 7 H 0 Z m 14,0 h 7 v 7 h -7 z m 7,0 h 7 v 7 h -7 z m 7,0 h 7 v 7 h -7 z m 14,0 h 7 v 7 h -7 z m 14,0 h 7 v 7 h -7 z m 7,0 h 7 v 7 h -7 z m 7,0 h 7 v 7 h -7 z m 7,0 h 7 v 7 h -7 z m 14,0 h 7 v 7 h -7 z m 14,0 h 7 v 7 h -7 z m 14,0 h 7 v 7 h -7 z m 7,0 h 7 v 7 h -7 z m 35,0 h 7 v 7 h -7 z m 21,0 h 7 v 7 h -7 z m 14,0 h 7 v 7 h -7 z m 7,0 h 7 v 7 h -7 z m 7,0 h 7 v 7 h -7 z m 14,0 h 7 v 7 h -7 z M 0,28 h 7 v 7 H 0 Z m 14,0 h 7 v 7 h -7 z m 7,0 h 7 v 7 h -7 z m 7,0 h 7 v 7 h -7 z m 14,0 h 7 v 7 h -7 z m 21,0 h 7 v 7 h -7 z m 14,0 h 7 v 7 h -7 z m 14,0 h 7 v 7 h -7 z m 28,0 h 7 v 7 h -7 z m 14,0 h 7 v 7 h -7 z m 7,0 h 7 v 7 h -7 z m 7,0 h 7 v 7 h -7 z m 14,0 h 7 v 7 h -7 z m 7,0 h 7 v 7 h -7 z m 14,0 h 7 v 7 h -7 z m 14,0 h 7 v 7 h -7 z m 7,0 h 7 v 7 h -7 z m 7,0 h 7 v 7 h -7 z m 14,0 h 7 v 7 h -7 z M 0,35 h 7 v 7 H 0 Z m 42,0 h 7 v 7 h -7 z m 14,0 h 7 v 7 h -7 z m 7,0 h 7 v 7 h -7 z m 21,0 h 7 v 7 h -7 z m 14,0 h 7 v 7 h -7 z m 7,0 h 7 v 7 h -7 z m 14,0 h 7 v 7 h -7 z m 7,0 h 7 v 7 h -7 z m 42,0 h 7 v 7 h -7 z m 14,0 h 7 v 7 h -7 z m 42,0 h 7 v 7 h -7 z M 0,42 h 7 v 7 H 0 Z m 7,0 h 7 v 7 H 7 Z m 7,0 h 7 v 7 h -7 z m 7,0 h 7 v 7 h -7 z m 7,0 h 7 v 7 h -7 z m 7,0 h 7 v 7 h -7 z m 7,0 h 7 v 7 h -7 z m 14,0 h 7 v 7 h -7 z m 14,0 h 7 v 7 h -7 z m 14,0 h 7 v 7 h -7 z m 14,0 h 7 v 7 h -7 z m 14,0 h 7 v 7 h -7 z m 14,0 h 7 v 7 h -7 z m 14,0 h 7 v 7 h -7 z m 14,0 h 7 v 7 h -7 z m 14,0 h 7 v 7 h -7 z m 14,0 h 7 v 7 h -7 z m 7,0 h 7 v 7 h -7 z m 7,0 h 7 v 7 h -7 z m 7,0 h 7 v 7 h -7 z m 7,0 h 7 v 7 h -7 z m 7,0 h 7 v 7 h -7 z m 7,0 h 7 v 7 h -7 z M 63,49 h 7 v 7 h -7 z m 7,0 h 7 v 7 h -7 z m 14,0 h 7 v 7 h -7 z m 42,0 h 7 v 7 h -7 z m 14,0 h 7 v 7 h -7 z m 7,0 h 7 v 7 h -7 z m 14,0 h 7 v 7 h -7 z m 7,0 h 7 v 7 h -7 z M 0,56 h 7 v 7 H 0 Z m 7,0 h 7 v 7 H 7 Z m 7,0 h 7 v 7 h -7 z m 7,0 h 7 v 7 h -7 z m 7,0 h 7 v 7 h -7 z m 14,0 h 7 v 7 h -7 z m 7,0 h 7 v 7 h -7 z m 7,0 h 7 v 7 h -7 z m 7,0 h 7 v 7 h -7 z m 28,0 h 7 v 7 h -7 z m 21,0 h 7 v 7 h -7 z m 7,0 h 7 v 7 h -7 z m 7,0 h 7 v 7 h -7 z m 7,0 h 7 v 7 h -7 z m 21,0 h 7 v 7 h -7 z m 14,0 h 7 v 7 h -7 z m 7,0 h 7 v 7 h -7 z m 14,0 h 7 v 7 h -7 z m 14,0 h 7 v 7 h -7 z m 14,0 h 7 v 7 h -7 z M 0,63 h 7 v 7 H 0 Z m 7,0 h 7 v 7 H 7 Z m 14,0 h 7 v 7 h -7 z m 7,0 h 7 v 7 h -7 z m 28,0 h 7 v 7 h -7 z m 14,0 h 7 v 7 h -7 z m 7,0 h 7 v 7 h -7 z m 7,0 h 7 v 7 h -7 z m 42,0 h 7 v 7 h -7 z m 7,0 h 7 v 7 h -7 z m 7,0 h 7 v 7 h -7 z m 7,0 h 7 v 7 h -7 z m 7,0 h 7 v 7 h -7 z m 7,0 h 7 v 7 h -7 z m 7,0 h 7 v 7 h -7 z m 14,0 h 7 v 7 h -7 z m 28,0 h 7 v 7 h -7 z m 7,0 h 7 v 7 h -7 z m 7,0 h 7 v 7 h -7 z M 0,70 h 7 v 7 H 0 Z m 7,0 h 7 v 7 H 7 Z m 7,0 h 7 v 7 h -7 z m 21,0 h 7 v 7 h -7 z m 7,0 h 7 v 7 h -7 z m 7,0 h 7 v 7 h -7 z m 21,0 h 7 v 7 h -7 z m 35,0 h 7 v 7 h -7 z m 21,0 h 7 v 7 h -7 z m 14,0 h 7 v 7 h -7 z m 35,0 h 7 v 7 h -7 z m 14,0 h 7 v 7 h -7 z m 21,0 h 7 v 7 h -7 z m 7,0 h 7 v 7 h -7 z M 14,77 h 7 v 7 h -7 z m 7,0 h 7 v 7 h -7 z m 7,0 h 7 v 7 h -7 z m 56,0 h 7 v 7 h -7 z m 42,0 h 7 v 7 h -7 z m 21,0 h 7 v 7 h -7 z m 7,0 h 7 v 7 h -7 z m 21,0 h 7 v 7 h -7 z m 21,0 h 7 v 7 h -7 z m 7,0 h 7 v 7 h -7 z m 7,0 h 7 v 7 h -7 z m 7,0 h 7 v 7 h -7 z M 35,84 h 7 v 7 h -7 z m 7,0 h 7 v 7 h -7 z m 21,0 h 7 v 7 h -7 z m 7,0 h 7 v 7 h -7 z m 21,0 h 7 v 7 h -7 z m 14,0 h 7 v 7 h -7 z m 14,0 h 7 v 7 h -7 z m 7,0 h 7 v 7 h -7 z m 28,0 h 7 v 7 h -7 z m 14,0 h 7 v 7 h -7 z m 7,0 h 7 v 7 h -7 z m 14,0 h 7 v 7 h -7 z m 7,0 h 7 v 7 h -7 z m 28,0 h 7 v 7 h -7 z M 0,91 h 7 v 7 H 0 Z m 21,0 h 7 v 7 h -7 z m 7,0 h 7 v 7 h -7 z m 28,0 h 7 v 7 h -7 z m 21,0 h 7 v 7 h -7 z m 7,0 h 7 v 7 h -7 z m 49,0 h 7 v 7 h -7 z m 7,0 h 7 v 7 h -7 z m 7,0 h 7 v 7 h -7 z m 14,0 h 7 v 7 h -7 z m 14,0 h 7 v 7 h -7 z m 7,0 h 7 v 7 h -7 z m 21,0 h 7 v 7 h -7 z m 7,0 h 7 v 7 h -7 z m 7,0 h 7 v 7 h -7 z m 7,0 h 7 v 7 h -7 z M 0,98 h 7 v 7 H 0 Z m 14,0 h 7 v 7 h -7 z m 28,0 h 7 v 7 h -7 z m 7,0 h 7 v 7 h -7 z m 7,0 h 7 v 7 h -7 z m 14,0 h 7 v 7 h -7 z m 14,0 h 7 v 7 h -7 z m 7,0 h 7 v 7 h -7 z m 14,0 h 7 v 7 h -7 z m 7,0 h 7 v 7 h -7 z m 28,0 h 7 v 7 h -7 z m 49,0 h 7 v 7 h -7 z m 7,0 h 7 v 7 h -7 z m 7,0 h 7 v 7 h -7 z m 7,0 h 7 v 7 h -7 z m 7,0 h 7 v 7 h -7 z M 0,105 h 7 v 7 H 0 Z m 35,0 h 7 v 7 h -7 z m 14,0 h 7 v 7 h -7 z m 7,0 h 7 v 7 h -7 z m 7,0 h 7 v 7 h -7 z m 7,0 h 7 v 7 h -7 z m 14,0 h 7 v 7 h -7 z m 28,0 h 7 v 7 h -7 z m 14,0 h 7 v 7 h -7 z m 7,0 h 7 v 7 h -7 z m 14,0 h 7 v 7 h -7 z m 7,0 h 7 v 7 h -7 z m 21,0 h 7 v 7 h -7 z m 7,0 h 7 v 7 h -7 z m 7,0 h 7 v 7 h -7 z m 21,0 h 7 v 7 h -7 z m -196,7 h 7 v 7 h -7 z m 14,0 h 7 v 7 h -7 z m 7,0 h 7 v 7 h -7 z m 7,0 h 7 v 7 h -7 z m 21,0 h 7 v 7 h -7 z m 7,0 h 7 v 7 h -7 z m 14,0 h 7 v 7 h -7 z m 7,0 h 7 v 7 h -7 z m 7,0 h 7 v 7 h -7 z m 7,0 h 7 v 7 h -7 z m 7,0 h 7 v 7 h -7 z m 7,0 h 7 v 7 h -7 z m 7,0 h 7 v 7 h -7 z m 28,0 h 7 v 7 h -7 z m 7,0 h 7 v 7 h -7 z m 7,0 h 7 v 7 h -7 z m 21,0 h 7 v 7 h -7 z m 7,0 h 7 v 7 h -7 z m 21,0 h 7 v 7 h -7 z M 0,119 h 7 v 7 H 0 Z m 7,0 h 7 v 7 H 7 Z m 7,0 h 7 v 7 h -7 z m 7,0 h 7 v 7 h -7 z m 7,0 h 7 v 7 h -7 z m 7,0 h 7 v 7 h -7 z m 14,0 h 7 v 7 h -7 z m 7,0 h 7 v 7 h -7 z m 7,0 h 7 v 7 h -7 z m 14,0 h 7 v 7 h -7 z m 7,0 h 7 v 7 h -7 z m 28,0 h 7 v 7 h -7 z m 7,0 h 7 v 7 h -7 z m 7,0 h 7 v 7 h -7 z m 7,0 h 7 v 7 h -7 z m 7,0 h 7 v 7 h -7 z m 21,0 h 7 v 7 h -7 z m 21,0 h 7 v 7 h -7 z m 28,0 h 7 v 7 h -7 z m 7,0 h 7 v 7 h -7 z m 7,0 h 7 v 7 h -7 z M 0,126 h 7 v 7 H 0 Z m 21,0 h 7 v 7 h -7 z m 7,0 h 7 v 7 h -7 z m 7,0 h 7 v 7 h -7 z m 7,0 h 7 v 7 h -7 z m 7,0 h 7 v 7 h -7 z m 7,0 h 7 v 7 h -7 z m 14,0 h 7 v 7 h -7 z m 14,0 h 7 v 7 h -7 z m 7,0 h 7 v 7 h -7 z m 7,0 h 7 v 7 h -7 z m 7,0 h 7 v 7 h -7 z m 7,0 h 7 v 7 h -7 z m 28,0 h 7 v 7 h -7 z m 14,0 h 7 v 7 h -7 z m 35,0 h 7 v 7 h -7 z m 7,0 h 7 v 7 h -7 z m 21,0 h 7 v 7 h -7 z M 0,133 h 7 v 7 H 0 Z m 21,0 h 7 v 7 h -7 z m 7,0 h 7 v 7 h -7 z m 28,0 h 7 v 7 h -7 z m 7,0 h 7 v 7 h -7 z m 14,0 h 7 v 7 h -7 z m 7,0 h 7 v 7 h -7 z m 14,0 h 7 v 7 h -7 z m 14,0 h 7 v 7 h -7 z m 14,0 h 7 v 7 h -7 z m 7,0 h 7 v 7 h -7 z m 14,0 h 7 v 7 h -7 z m 7,0 h 7 v 7 h -7 z m 14,0 h 7 v 7 h -7 z m 14,0 h 7 v 7 h -7 z m 7,0 h 7 v 7 h -7 z m 21,0 h 7 v 7 h -7 z m 14,0 h 7 v 7 h -7 z M 7,140 h 7 v 7 H 7 Z m 7,0 h 7 v 7 h -7 z m 21,0 h 7 v 7 h -7 z m 7,0 h 7 v 7 h -7 z m 21,0 h 7 v 7 h -7 z m 14,0 h 7 v 7 h -7 z m 14,0 h 7 v 7 h -7 z m 7,0 h 7 v 7 h -7 z m 14,0 h 7 v 7 h -7 z m 7,0 h 7 v 7 h -7 z m 7,0 h 7 v 7 h -7 z m 14,0 h 7 v 7 h -7 z m 14,0 h 7 v 7 h -7 z m 14,0 h 7 v 7 h -7 z m 21,0 h 7 v 7 h -7 z m 7,0 h 7 v 7 h -7 z m 7,0 h 7 v 7 h -7 z M 0,147 h 7 v 7 H 0 Z m 14,0 h 7 v 7 h -7 z m 14,0 h 7 v 7 h -7 z m 28,0 h 7 v 7 h -7 z m 14,0 h 7 v 7 h -7 z m 7,0 h 7 v 7 h -7 z m 7,0 h 7 v 7 h -7 z m 14,0 h 7 v 7 h -7 z m 7,0 h 7 v 7 h -7 z m 7,0 h 7 v 7 h -7 z m 14,0 h 7 v 7 h -7 z m 7,0 h 7 v 7 h -7 z m 7,0 h 7 v 7 h -7 z m 7,0 h 7 v 7 h -7 z m 7,0 h 7 v 7 h -7 z m 7,0 h 7 v 7 h -7 z m 21,0 h 7 v 7 h -7 z m 42,0 h 7 v 7 h -7 z M 0,154 h 7 v 7 H 0 Z m 21,0 h 7 v 7 h -7 z m 14,0 h 7 v 7 h -7 z m 7,0 h 7 v 7 h -7 z m 14,0 h 7 v 7 h -7 z m 28,0 h 7 v 7 h -7 z m 7,0 h 7 v 7 h -7 z m 14,0 h 7 v 7 h -7 z m 21,0 h 7 v 7 h -7 z m 42,0 h 7 v 7 h -7 z m 7,0 h 7 v 7 h -7 z m 7,0 h 7 v 7 h -7 z M 0,161 h 7 v 7 H 0 Z m 21,0 h 7 v 7 h -7 z m 7,0 h 7 v 7 h -7 z m 21,0 h 7 v 7 h -7 z m 7,0 h 7 v 7 h -7 z m 7,0 h 7 v 7 h -7 z m 7,0 h 7 v 7 h -7 z m 7,0 h 7 v 7 h -7 z m 7,0 h 7 v 7 h -7 z m 21,0 h 7 v 7 h -7 z m 7,0 h 7 v 7 h -7 z m 14,0 h 7 v 7 h -7 z m 7,0 h 7 v 7 h -7 z m 14,0 h 7 v 7 h -7 z m 14,0 h 7 v 7 h -7 z m 49,0 h 7 v 7 h -7 z m 7,0 h 7 v 7 h -7 z m 7,0 h 7 v 7 h -7 z M 0,168 h 7 v 7 H 0 Z m 14,0 h 7 v 7 h -7 z m 7,0 h 7 v 7 h -7 z m 21,0 h 7 v 7 h -7 z m 7,0 h 7 v 7 h -7 z m 7,0 h 7 v 7 h -7 z m 7,0 h 7 v 7 h -7 z m 21,0 h 7 v 7 h -7 z m 7,0 h 7 v 7 h -7 z m 7,0 h 7 v 7 h -7 z m 7,0 h 7 v 7 h -7 z m 14,0 h 7 v 7 h -7 z m 7,0 h 7 v 7 h -7 z m 28,0 h 7 v 7 h -7 z m 7,0 h 7 v 7 h -7 z m 7,0 h 7 v 7 h -7 z m 7,0 h 7 v 7 h -7 z m 7,0 h 7 v 7 h -7 z m 7,0 h 7 v 7 h -7 z m 7,0 h 7 v 7 h -7 z m 28,0 h 7 v 7 h -7 z m -168,7 h 7 v 7 h -7 z m 14,0 h 7 v 7 h -7 z m 7,0 h 7 v 7 h -7 z m 7,0 h 7 v 7 h -7 z m 7,0 h 7 v 7 h -7 z m 21,0 h 7 v 7 h -7 z m 14,0 h 7 v 7 h -7 z m 7,0 h 7 v 7 h -7 z m 14,0 h 7 v 7 h -7 z m 21,0 h 7 v 7 h -7 z m 28,0 h 7 v 7 h -7 z m 14,0 h 7 v 7 h -7 z m 7,0 h 7 v 7 h -7 z m 7,0 h 7 v 7 h -7 z M 0,182 h 7 v 7 H 0 Z m 7,0 h 7 v 7 H 7 Z m 7,0 h 7 v 7 h -7 z m 7,0 h 7 v 7 h -7 z m 7,0 h 7 v 7 h -7 z m 7,0 h 7 v 7 h -7 z m 7,0 h 7 v 7 h -7 z m 14,0 h 7 v 7 h -7 z m 7,0 h 7 v 7 h -7 z m 7,0 h 7 v 7 h -7 z m 14,0 h 7 v 7 h -7 z m 21,0 h 7 v 7 h -7 z m 7,0 h 7 v 7 h -7 z m 7,0 h 7 v 7 h -7 z m 7,0 h 7 v 7 h -7 z m 21,0 h 7 v 7 h -7 z m 7,0 h 7 v 7 h -7 z m 7,0 h 7 v 7 h -7 z m 7,0 h 7 v 7 h -7 z m 14,0 h 7 v 7 h -7 z m 14,0 h 7 v 7 h -7 z m 14,0 h 7 v 7 h -7 z m 7,0 h 7 v 7 h -7 z M 0,189 h 7 v 7 H 0 Z m 42,0 h 7 v 7 h -7 z m 21,0 h 7 v 7 h -7 z m 21,0 h 7 v 7 h -7 z m 14,0 h 7 v 7 h -7 z m 7,0 h 7 v 7 h -7 z m 21,0 h 7 v 7 h -7 z m 21,0 h 7 v 7 h -7 z m 7,0 h 7 v 7 h -7 z m 7,0 h 7 v 7 h -7 z m 7,0 h 7 v 7 h -7 z m 28,0 h 7 v 7 h -7 z m 14,0 h 7 v 7 h -7 z m 7,0 h 7 v 7 h -7 z m 7,0 h 7 v 7 h -7 z M 0,196 h 7 v 7 H 0 Z m 14,0 h 7 v 7 h -7 z m 7,0 h 7 v 7 h -7 z m 7,0 h 7 v 7 h -7 z m 14,0 h 7 v 7 h -7 z m 14,0 h 7 v 7 h -7 z m 14,0 h 7 v 7 h -7 z m 7,0 h 7 v 7 h -7 z m 7,0 h 7 v 7 h -7 z m 7,0 h 7 v 7 h -7 z m 7,0 h 7 v 7 h -7 z m 21,0 h 7 v 7 h -7 z m 49,0 h 7 v 7 h -7 z m 7,0 h 7 v 7 h -7 z m 7,0 h 7 v 7 h -7 z m 7,0 h 7 v 7 h -7 z m 7,0 h 7 v 7 h -7 z m 28,0 h 7 v 7 h -7 z M 0,203 h 7 v 7 H 0 Z m 14,0 h 7 v 7 h -7 z m 7,0 h 7 v 7 h -7 z m 7,0 h 7 v 7 h -7 z m 14,0 h 7 v 7 h -7 z m 14,0 h 7 v 7 h -7 z m 7,0 h 7 v 7 h -7 z m 14,0 h 7 v 7 h -7 z m 35,0 h 7 v 7 h -7 z m 14,0 h 7 v 7 h -7 z m 7,0 h 7 v 7 h -7 z m 14,0 h 7 v 7 h -7 z m 49,0 h 7 v 7 h -7 z m 14,0 h 7 v 7 h -7 z M 0,210 h 7 v 7 H 0 Z m 14,0 h 7 v 7 h -7 z m 7,0 h 7 v 7 h -7 z m 7,0 h 7 v 7 h -7 z m 14,0 h 7 v 7 h -7 z m 14,0 h 7 v 7 h -7 z m 14,0 h 7 v 7 h -7 z m 28,0 h 7 v 7 h -7 z m 7,0 h 7 v 7 h -7 z m 14,0 h 7 v 7 h -7 z m 49,0 h 7 v 7 h -7 z m 14,0 h 7 v 7 h -7 z m 35,0 h 7 v 7 h -7 z M 0,217 h 7 v 7 H 0 Z m 42,0 h 7 v 7 h -7 z m 14,0 h 7 v 7 h -7 z m 14,0 h 7 v 7 h -7 z m 7,0 h 7 v 7 h -7 z m 63,0 h 7 v 7 h -7 z m 7,0 h 7 v 7 h -7 z m 42,0 h 7 v 7 h -7 z m 7,0 h 7 v 7 h -7 z m 7,0 h 7 v 7 h -7 z m 7,0 h 7 v 7 h -7 z M 0,224 h 7 v 7 H 0 Z m 7,0 h 7 v 7 H 7 Z m 7,0 h 7 v 7 h -7 z m 7,0 h 7 v 7 h -7 z m 7,0 h 7 v 7 h -7 z m 7,0 h 7 v 7 h -7 z m 7,0 h 7 v 7 h -7 z m 14,0 h 7 v 7 h -7 z m 14,0 h 7 v 7 h -7 z m 7,0 h 7 v 7 h -7 z m 21,0 h 7 v 7 h -7 z m 7,0 h 7 v 7 h -7 z m 7,0 h 7 v 7 h -7 z m 7,0 h 7 v 7 h -7 z m 14,0 h 7 v 7 h -7 z m 35,0 h 7 v 7 h -7 z m 21,0 h 7 v 7 h -7 z m 28,0 h 7 v 7 h -7 z"
           style="fill:#000000"
           inkscape:connector-curvature="0" />
      </g>
    </g>
  </g>
</svg>
